<svg width="20" height="20" viewBox="0 0 20 20" fill="none" xmlns="http://www.w3.org/2000/svg">
<path d="M0.00142809 0.714097C0.00142809 0.524707 0.0766632 0.343073 0.210582 0.209154C0.344501 0.0752348 0.526135 0 0.715525 0H1.34107C2.37937 0 2.97636 0.675536 3.32198 1.34964C3.55763 1.81095 3.72759 2.37366 3.86898 2.8621H18.5722C18.7929 2.86217 19.0106 2.91337 19.2081 3.01169C19.4057 3.11002 19.5778 3.25279 19.7109 3.4288C19.844 3.60481 19.9345 3.80928 19.9754 4.02615C20.0162 4.24302 20.0062 4.4664 19.9462 4.67876L17.8096 12.2125C17.6396 12.8102 17.2794 13.3362 16.7835 13.7107C16.2876 14.0852 15.6831 14.2877 15.0617 14.2876H7.80793C7.18135 14.2879 6.57208 14.082 6.07399 13.7019C5.5759 13.3217 5.21663 12.7884 5.05152 12.1839L4.13462 8.82052C4.12936 8.80545 4.1246 8.79021 4.12034 8.77482L2.64787 3.78043L2.50505 3.29913C2.36223 2.80497 2.23655 2.36794 2.04803 2.0009C1.82095 1.55816 1.61243 1.42962 1.33965 1.42962H0.714097C0.524707 1.42962 0.343073 1.35439 0.209154 1.22047C0.0752348 1.08655 0 0.904915 0 0.715525M7.86078 20.0004C8.42895 20.0004 8.97385 19.7747 9.37561 19.373C9.77736 18.9712 10.0031 18.4263 10.0031 17.8581C10.0031 17.29 9.77736 16.7451 9.37561 16.3433C8.97385 15.9415 8.42895 15.7158 7.86078 15.7158C7.29261 15.7158 6.74771 15.9415 6.34595 16.3433C5.94419 16.7451 5.71849 17.29 5.71849 17.8581C5.71849 18.4263 5.94419 18.9712 6.34595 19.373C6.74771 19.7747 7.29261 20.0004 7.86078 20.0004ZM15.0017 20.0004C15.5699 20.0004 16.1148 19.7747 16.5166 19.373C16.9183 18.9712 17.144 18.4263 17.144 17.8581C17.144 17.29 16.9183 16.7451 16.5166 16.3433C16.1148 15.9415 15.5699 15.7158 15.0017 15.7158C14.4336 15.7158 13.8887 15.9415 13.4869 16.3433C13.0852 16.7451 12.8595 17.29 12.8595 17.8581C12.8595 18.4263 13.0852 18.9712 13.4869 19.373C13.8887 19.7747 14.4336 20.0004 15.0017 20.0004Z" fill="#0080FF"/>
</svg>
