<svg width="20" height="20" viewBox="0 0 20 20" fill="none" xmlns="http://www.w3.org/2000/svg">
<path fill-rule="evenodd" clip-rule="evenodd" d="M10.0002 0C4.47724 0 0.000244141 4.477 0.000244141 10C0.000244141 15.523 4.47724 20 10.0002 20C15.5232 20 20.0002 15.523 20.0002 10C20.0002 4.477 15.5232 0 10.0002 0ZM6.00024 6C6.00024 5.73478 6.1056 5.48043 6.29314 5.29289C6.48067 5.10536 6.73503 5 7.00024 5H13.0002C13.2655 5 13.5198 5.10536 13.7073 5.29289C13.8949 5.48043 14.0002 5.73478 14.0002 6C14.0002 6.26522 13.8949 6.51957 13.7073 6.70711C13.5198 6.89464 13.2655 7 13.0002 7H11.4652C11.6442 7.31 11.7832 7.645 11.8742 8H13.0002C13.2655 8 13.5198 8.10536 13.7073 8.29289C13.8949 8.48043 14.0002 8.73478 14.0002 9C14.0002 9.26521 13.8949 9.51957 13.7073 9.70711C13.5198 9.89464 13.2655 10 13.0002 10H11.8742C11.7207 10.5928 11.4333 11.1426 11.0343 11.6072C10.6353 12.0717 10.1351 12.4387 9.57224 12.68L11.6002 14.2C11.8124 14.3591 11.9527 14.596 11.9902 14.8586C12.0277 15.1211 11.9594 15.3878 11.8002 15.6C11.6411 15.8122 11.4042 15.9524 11.1417 15.9899C10.8791 16.0275 10.6124 15.9591 10.4002 15.8L6.40824 12.806C6.28093 12.7139 6.17748 12.5927 6.10651 12.4525C6.03553 12.3123 5.9991 12.1571 6.00024 12C6.00024 11.743 6.10324 11.496 6.27024 11.317C6.36318 11.2163 6.4761 11.1361 6.6018 11.0815C6.7275 11.0269 6.86321 10.9991 7.00024 11H8.00024C8.35131 11 8.69619 10.9076 9.00021 10.732C9.30424 10.5565 9.55671 10.304 9.73224 10H7.00024C6.73503 10 6.48067 9.89464 6.29314 9.70711C6.1056 9.51957 6.00024 9.26521 6.00024 9C6.00024 8.73478 6.1056 8.48043 6.29314 8.29289C6.48067 8.10536 6.73503 8 7.00024 8H9.73224C9.55671 7.69597 9.30424 7.4435 9.00021 7.26796C8.69619 7.09242 8.35131 7.00001 8.00024 7H7.00024C6.73503 7 6.48067 6.89464 6.29314 6.70711C6.1056 6.51957 6.00024 6.26522 6.00024 6Z" fill="#0080FF"/>
</svg>
