<svg width="22" height="22" viewBox="0 0 22 22" fill="none" xmlns="http://www.w3.org/2000/svg">
<path d="M10.4002 20.211L10.4833 20.1696V20.0768V10.2215L16.85 7.05138V13.0332V13.1832H17H18.3333H18.4833V13.0332V5.31535V5.22248L18.4002 5.18108L9.73353 0.865725L9.66667 0.832434L9.59981 0.865725L0.933141 5.18108L0.85 5.22248V5.31535V16.1037V16.1967L0.93327 16.2381L9.59994 20.5431L9.66675 20.5762L9.73353 20.543L10.4002 20.211ZM14.1833 18.3444V18.4944H14.3333H21H21.15V18.3444V17.0166V16.8666H21H14.3333H14.1833V17.0166V18.3444ZM14.3333 14.211H14.1833V14.361V15.6888V15.8388H14.3333H21H21.15V15.6888V14.361V14.211H21H14.3333ZM11.5167 21V21.15H11.6667H13H13.15V21V19.6722V19.5222H13H11.6667H11.5167V19.6722V21ZM11.5167 15.6888V15.8388H11.6667H13H13.15V15.6888V14.361V14.211H13H11.6667H11.5167V14.361V15.6888ZM11.5167 18.3444V18.4944H11.6667H13H13.15V18.3444V17.0166V16.8666H13H11.6667H11.5167V17.0166V18.3444ZM14.1833 21V21.15H14.3333H21H21.15V21V19.6722V19.5222H21H14.3333H14.1833V19.6722V21ZM15.8398 5.73012L13.6255 6.82817L7.49182 3.73962L9.66658 2.66125L15.8398 5.73012ZM8.85 18.3511L2.48333 15.181V7.05138L8.85 10.2215V18.3511ZM9.66689 8.79941L3.49356 5.73046L5.66621 4.65313L11.8095 7.74153L9.66689 8.79941Z" fill="#0080FF" stroke="#0080FF" stroke-width="0.3"/>
</svg>
