<svg width="20" height="18" viewBox="0 0 20 18" fill="none" xmlns="http://www.w3.org/2000/svg">
<path d="M19.901 5.8919L18.8507 1.52049C18.6306 0.6202 17.8504 0 16.9401 0H3.04562C2.14533 0 1.35507 0.630203 1.145 1.52049L0.094666 5.8919C-0.145411 6.91222 0.0746596 7.95256 0.714866 8.77282C0.794891 8.88286 0.904927 8.96288 0.994956 9.06292V16.0051C0.994956 17.1055 1.89525 18.0058 2.9956 18.0058H17.0001C18.1005 18.0058 19.0007 17.1055 19.0007 16.0051V9.06292C19.0908 8.97289 19.2008 8.88286 19.2808 8.78283C19.921 7.96256 20.1511 6.91222 19.901 5.8919ZM16.9101 1.99064L17.9604 6.36205C18.0604 6.78218 17.9704 7.20232 17.7103 7.53242C17.5703 7.71248 17.2702 8.00257 16.77 8.00257C16.1598 8.00257 15.6297 7.51242 15.5596 6.86221L14.9795 2.00064L16.9101 1.99064ZM10.9982 2.00064H12.9588L13.499 6.5221C13.549 6.91222 13.429 7.30235 13.1689 7.59244C12.9488 7.85253 12.6287 8.00257 12.2186 8.00257C11.5484 8.00257 10.9982 7.41238 10.9982 6.69215V2.00064ZM6.48672 6.5221L7.0369 2.00064H8.99753V6.69215C8.99753 7.41238 8.44735 8.00257 7.70712 8.00257C7.36701 8.00257 7.05691 7.85253 6.81683 7.59244C6.56675 7.30235 6.44671 6.91222 6.48672 6.5221ZM2.03529 6.36205L3.04562 2.00064H5.01625L4.43606 6.86221C4.35604 7.51242 3.83587 8.00257 3.22567 8.00257C2.73552 8.00257 2.42542 7.71248 2.29537 7.53242C2.02529 7.21232 1.93526 6.78218 2.03529 6.36205ZM2.9956 16.0051V9.97321C3.07563 9.98321 3.14565 10.0032 3.22567 10.0032C4.09595 10.0032 4.88621 9.6431 5.46639 9.05291C6.06659 9.65311 6.86684 10.0032 7.77714 10.0032C8.64742 10.0032 9.42767 9.6431 10.0079 9.07292C10.598 9.6431 11.3983 10.0032 12.2986 10.0032C13.1389 10.0032 13.9391 9.65311 14.5393 9.05291C15.1195 9.6431 15.9098 10.0032 16.78 10.0032C16.8601 10.0032 16.9301 9.98321 17.0101 9.97321V16.0051H2.9956Z" fill="#0080FF"/>
</svg>
